<?xml version="1.0" ?>
<!-- Uploaded to: SVG Repo, www.svgrepo.com, Generator: SVG Repo Mixer Tools -->
<svg fill="#000000" width="800px" height="800px" viewBox="0 0 32 32" xmlns="http://www.w3.org/2000/svg">
<title/>
<g id="Thublr">
<path d="M26.49,30H5.5A3.35,3.35,0,0,1,3,29a3.35,3.35,0,0,1-1-2.48V5.5A3.35,3.35,0,0,1,3,3,3.35,3.35,0,0,1,5.5,2h21A3.35,3.35,0,0,1,29,3,3.35,3.35,0,0,1,30,5.5v21A3.52,3.52,0,0,1,26.49,30ZM20.7,11.61c-1.7-.1-2.91-.15-3.61-.15l0-4.42H14.44C14,9.7,12.8,11.34,10.86,12v2.33a15.67,15.67,0,0,0,1.68.18c.11,0,.16,0,.16,0v1.14q0,.9-.09,2.16c0,.57,0,1.07,0,1.5a11.23,11.23,0,0,0,.07,1.43,4.51,4.51,0,0,0,3.2,3.93,6.33,6.33,0,0,0,2,.35,5.79,5.79,0,0,0,3.25-1c-.13-.43-.43-1.29-.9-2.59a3.35,3.35,0,0,1-1.44.4c-.91,0-1.48-.68-1.69-2.05q0-.07.12-5.37H20.7Z"/>
</g>
</svg>