<svg width="217" height="31" viewBox="0 0 217 31" fill="none" xmlns="http://www.w3.org/2000/svg">
<path d="M12.875 24.584L11.825 21.434H4.85L3.8 24.584H0.075L6.2 7.08398H10.475L16.625 24.584H12.875ZM5.95 18.209H10.75L8.35 11.059L5.95 18.209ZM26.3021 12.084H29.5271V24.584H26.3021V23.184C25.5188 24.3507 24.2771 24.934 22.5771 24.934C21.2105 24.934 20.0771 24.4757 19.1771 23.559C18.2938 22.6423 17.8521 21.3757 17.8521 19.759V12.084H21.0771V19.359C21.0771 20.1923 21.3021 20.834 21.7521 21.284C22.2021 21.7173 22.8021 21.934 23.5521 21.934C24.3855 21.934 25.0521 21.6757 25.5521 21.159C26.0521 20.6423 26.3021 19.8673 26.3021 18.834V12.084ZM39.6309 15.184H36.8059V20.384C36.8059 20.8173 36.9142 21.134 37.1309 21.334C37.3475 21.534 37.6642 21.6507 38.0809 21.684C38.4975 21.7007 39.0142 21.6923 39.6309 21.659V24.584C37.4142 24.834 35.8475 24.6257 34.9309 23.959C34.0309 23.2923 33.5809 22.1007 33.5809 20.384V15.184H31.4059V12.084H33.5809V9.55898L36.8059 8.58398V12.084H39.6309V15.184ZM52.1641 23.034C50.8807 24.3007 49.3141 24.934 47.4641 24.934C45.6141 24.934 44.0474 24.3007 42.7641 23.034C41.4974 21.7507 40.8641 20.184 40.8641 18.334C40.8641 16.484 41.4974 14.9257 42.7641 13.659C44.0474 12.3757 45.6141 11.734 47.4641 11.734C49.3141 11.734 50.8807 12.3757 52.1641 13.659C53.4474 14.9257 54.0891 16.484 54.0891 18.334C54.0891 20.184 53.4474 21.7507 52.1641 23.034ZM45.0391 20.809C45.6891 21.459 46.4974 21.784 47.4641 21.784C48.4307 21.784 49.2391 21.459 49.8891 20.809C50.5391 20.159 50.8641 19.334 50.8641 18.334C50.8641 17.334 50.5391 16.509 49.8891 15.859C49.2391 15.209 48.4307 14.884 47.4641 14.884C46.4974 14.884 45.6891 15.209 45.0391 15.859C44.4057 16.509 44.0891 17.334 44.0891 18.334C44.0891 19.334 44.4057 20.159 45.0391 20.809Z" fill="#F0B44A"/>
<path d="M66.9578 10.384H59.9578V14.534H66.7578V17.834H59.9578V24.584H56.5078V7.08398H66.9578V10.384ZM73.7467 10.384C73.43 10.7007 73.0383 10.859 72.5717 10.859C72.105 10.859 71.705 10.7007 71.3717 10.384C71.0383 10.0507 70.8717 9.65065 70.8717 9.18398C70.8717 8.71732 71.0383 8.31732 71.3717 7.98398C71.705 7.65065 72.105 7.48398 72.5717 7.48398C73.0383 7.48398 73.43 7.65065 73.7467 7.98398C74.08 8.31732 74.2467 8.71732 74.2467 9.18398C74.2467 9.65065 74.08 10.0507 73.7467 10.384ZM78.4967 10.384C78.18 10.7007 77.7883 10.859 77.3217 10.859C76.855 10.859 76.455 10.7007 76.1217 10.384C75.7883 10.0507 75.6217 9.65065 75.6217 9.18398C75.6217 8.71732 75.7883 8.31732 76.1217 7.98398C76.455 7.65065 76.855 7.48398 77.3217 7.48398C77.7883 7.48398 78.18 7.65065 78.4967 7.98398C78.83 8.31732 78.9967 8.71732 78.9967 9.18398C78.9967 9.65065 78.83 10.0507 78.4967 10.384ZM77.5717 12.084H80.7967V24.584H77.5717V23.184C76.7883 24.3507 75.5467 24.934 73.8467 24.934C72.48 24.934 71.3467 24.4757 70.4467 23.559C69.5633 22.6423 69.1217 21.3757 69.1217 19.759V12.084H72.3467V19.359C72.3467 20.1923 72.5717 20.834 73.0217 21.284C73.4717 21.7173 74.0717 21.934 74.8217 21.934C75.655 21.934 76.3217 21.6757 76.8217 21.159C77.3217 20.6423 77.5717 19.8673 77.5717 18.834V12.084ZM86.4754 19.659C86.9087 21.2257 88.0837 22.009 90.0004 22.009C91.2337 22.009 92.1671 21.5923 92.8004 20.759L95.4004 22.259C94.1671 24.0423 92.3504 24.934 89.9504 24.934C87.8837 24.934 86.2254 24.309 84.9754 23.059C83.7254 21.809 83.1004 20.234 83.1004 18.334C83.1004 16.4507 83.7171 14.884 84.9504 13.634C86.1837 12.3673 87.7671 11.734 89.7004 11.734C91.5337 11.734 93.0421 12.3673 94.2254 13.634C95.4254 14.9007 96.0254 16.4673 96.0254 18.334C96.0254 18.7507 95.9837 19.1923 95.9004 19.659H86.4754ZM86.4254 17.159H92.8004C92.6171 16.309 92.2337 15.6757 91.6504 15.259C91.0837 14.8423 90.4337 14.634 89.7004 14.634C88.8337 14.634 88.1171 14.859 87.5504 15.309C86.9837 15.7423 86.6087 16.359 86.4254 17.159ZM105.227 11.734C106.593 11.734 107.718 12.1923 108.602 13.109C109.502 14.0257 109.952 15.2923 109.952 16.909V24.584H106.727V17.309C106.727 16.4757 106.502 15.8423 106.052 15.409C105.602 14.959 105.002 14.734 104.252 14.734C103.418 14.734 102.752 14.9923 102.252 15.509C101.752 16.0257 101.502 16.8007 101.502 17.834V24.584H98.2768V7.08398H101.502V13.484C102.285 12.3173 103.527 11.734 105.227 11.734ZM115.93 14.234C116.23 13.434 116.722 12.834 117.405 12.434C118.105 12.034 118.88 11.834 119.73 11.834V15.434C118.747 15.3173 117.864 15.5173 117.08 16.034C116.314 16.5507 115.93 17.409 115.93 18.609V24.584H112.705V12.084H115.93V14.234ZM123.878 19.659C124.311 21.2257 125.486 22.009 127.403 22.009C128.636 22.009 129.569 21.5923 130.203 20.759L132.803 22.259C131.569 24.0423 129.753 24.934 127.353 24.934C125.286 24.934 123.628 24.309 122.378 23.059C121.128 21.809 120.503 20.234 120.503 18.334C120.503 16.4507 121.119 14.884 122.353 13.634C123.586 12.3673 125.169 11.734 127.103 11.734C128.936 11.734 130.444 12.3673 131.628 13.634C132.828 14.9007 133.428 16.4673 133.428 18.334C133.428 18.7507 133.386 19.1923 133.303 19.659H123.878ZM123.828 17.159H130.203C130.019 16.309 129.636 15.6757 129.053 15.259C128.486 14.8423 127.836 14.634 127.103 14.634C126.236 14.634 125.519 14.859 124.953 15.309C124.386 15.7423 124.011 16.359 123.828 17.159ZM138.904 14.234C139.204 13.434 139.696 12.834 140.379 12.434C141.079 12.034 141.854 11.834 142.704 11.834V15.434C141.721 15.3173 140.837 15.5173 140.054 16.034C139.287 16.5507 138.904 17.409 138.904 18.609V24.584H135.679V12.084H138.904V14.234ZM147.175 15.634C147.175 15.9673 147.391 16.2423 147.825 16.459C148.275 16.659 148.816 16.8423 149.45 17.009C150.083 17.159 150.716 17.359 151.35 17.609C151.983 17.8423 152.516 18.2423 152.95 18.809C153.4 19.3757 153.625 20.084 153.625 20.934C153.625 22.2173 153.141 23.209 152.175 23.909C151.225 24.5923 150.033 24.934 148.6 24.934C146.033 24.934 144.283 23.9423 143.35 21.959L146.15 20.384C146.516 21.4673 147.333 22.009 148.6 22.009C149.75 22.009 150.325 21.6507 150.325 20.934C150.325 20.6007 150.1 20.334 149.65 20.134C149.216 19.9173 148.683 19.7257 148.05 19.559C147.416 19.3923 146.783 19.184 146.15 18.934C145.516 18.684 144.975 18.2923 144.525 17.759C144.091 17.209 143.875 16.5257 143.875 15.709C143.875 14.4757 144.325 13.509 145.225 12.809C146.141 12.0923 147.275 11.734 148.625 11.734C149.641 11.734 150.566 11.9673 151.4 12.434C152.233 12.884 152.891 13.534 153.375 14.384L150.625 15.884C150.225 15.034 149.558 14.609 148.625 14.609C148.208 14.609 147.858 14.7007 147.575 14.884C147.308 15.0673 147.175 15.3173 147.175 15.634ZM161.478 24.934C159.594 24.934 158.019 24.3007 156.753 23.034C155.503 21.7673 154.878 20.2007 154.878 18.334C154.878 16.4673 155.503 14.9007 156.753 13.634C158.019 12.3673 159.594 11.734 161.478 11.734C162.694 11.734 163.803 12.0257 164.803 12.609C165.803 13.1923 166.561 13.9757 167.078 14.959L164.303 16.584C164.053 16.0673 163.669 15.659 163.153 15.359C162.653 15.059 162.086 14.909 161.453 14.909C160.486 14.909 159.686 15.234 159.053 15.884C158.419 16.5173 158.103 17.334 158.103 18.334C158.103 19.3173 158.419 20.134 159.053 20.784C159.686 21.4173 160.486 21.734 161.453 21.734C162.103 21.734 162.678 21.5923 163.178 21.309C163.694 21.009 164.078 20.6007 164.328 20.084L167.128 21.684C166.578 22.6673 165.803 23.459 164.803 24.059C163.803 24.6423 162.694 24.934 161.478 24.934ZM175.783 11.734C177.15 11.734 178.275 12.1923 179.158 13.109C180.058 14.0257 180.508 15.2923 180.508 16.909V24.584H177.283V17.309C177.283 16.4757 177.058 15.8423 176.608 15.409C176.158 14.959 175.558 14.734 174.808 14.734C173.975 14.734 173.308 14.9923 172.808 15.509C172.308 16.0257 172.058 16.8007 172.058 17.834V24.584H168.833V7.08398H172.058V13.484C172.842 12.3173 174.083 11.734 175.783 11.734ZM185.987 19.659C186.42 21.2257 187.595 22.009 189.512 22.009C190.745 22.009 191.679 21.5923 192.312 20.759L194.912 22.259C193.679 24.0423 191.862 24.934 189.462 24.934C187.395 24.934 185.737 24.309 184.487 23.059C183.237 21.809 182.612 20.234 182.612 18.334C182.612 16.4507 183.229 14.884 184.462 13.634C185.695 12.3673 187.279 11.734 189.212 11.734C191.045 11.734 192.554 12.3673 193.737 13.634C194.937 14.9007 195.537 16.4673 195.537 18.334C195.537 18.7507 195.495 19.1923 195.412 19.659H185.987ZM185.937 17.159H192.312C192.129 16.309 191.745 15.6757 191.162 15.259C190.595 14.8423 189.945 14.634 189.212 14.634C188.345 14.634 187.629 14.859 187.062 15.309C186.495 15.7423 186.12 16.359 185.937 17.159ZM199.388 10.584C198.855 10.584 198.388 10.3923 197.988 10.009C197.605 9.60898 197.413 9.14232 197.413 8.60898C197.413 8.07565 197.605 7.60898 197.988 7.20898C198.388 6.80898 198.855 6.60898 199.388 6.60898C199.938 6.60898 200.405 6.80898 200.788 7.20898C201.188 7.60898 201.388 8.07565 201.388 8.60898C201.388 9.14232 201.188 9.60898 200.788 10.009C200.405 10.3923 199.938 10.584 199.388 10.584ZM197.788 24.584V12.084H201.013V24.584H197.788ZM210.915 11.734C212.282 11.734 213.407 12.1923 214.29 13.109C215.19 14.0257 215.64 15.2923 215.64 16.909V24.584H212.415V17.309C212.415 16.4757 212.19 15.8423 211.74 15.409C211.29 14.959 210.69 14.734 209.94 14.734C209.107 14.734 208.44 14.9923 207.94 15.509C207.44 16.0257 207.19 16.8007 207.19 17.834V24.584H203.965V12.084H207.19V13.484C207.974 12.3173 209.215 11.734 210.915 11.734Z" fill="#241A12"/>
</svg>
