<svg width="8" height="12" viewBox="0 0 8 12" fill="none" xmlns="http://www.w3.org/2000/svg">
  <path d="M5.7168 5.99414L1.17773 1.46875C1.05924 1.35026 1 1.21126 1 1.05176C1 0.892253 1.05924 0.753255 1.17773 0.634766C1.28711 0.525391 1.42383 0.470703 1.58789 0.470703C1.75195 0.470703 1.88867 0.525391 1.99805 0.634766L6.74219 5.37891C6.91536 5.55208 7.00195 5.75944 7.00195 6.00098C7.00195 6.24251 6.91536 6.44987 6.74219 6.62305L1.99805 11.3672C1.88867 11.4766 1.75195 11.5312 1.58789 11.5312C1.42383 11.5312 1.28711 11.4766 1.17773 11.3672C1.05924 11.2487 1 11.1097 1 10.9502C1 10.7907 1.05924 10.6517 1.17773 10.5332L5.7168 5.99414Z" fill="#241A12" stroke="#241A12" stroke-width="0.5" />
</svg>